<?xml version="1.0" encoding="utf-8"?>
<!-- Generator: Adobe Illustrator 19.2.1, SVG Export Plug-In . SVG Version: 6.00 Build 0)  -->
<svg version="1.1" id="Layer_1" xmlns="http://www.w3.org/2000/svg" xmlns:xlink="http://www.w3.org/1999/xlink" x="0px" y="0px"
	 viewBox="0 0 327.7 119.2" style="enable-background:new 0 0 327.7 119.2;" xml:space="preserve">
<style type="text/css">
	.st0{fill:#008DD2;}
	.st1{fill:#FFFFFF;}
</style>
<title>jrLogo</title>
<g id="Layer0_0_FILL">
	<path class="st0" d="M326.3,35.2c0.8-3.1,1.3-6.3,1.4-9.5V0H0v25.7h142.3v9.5H116V61h25.1c-0.1,0.3-0.3,0.7-0.4,1
		c-0.8,1.7-2.1,3.2-3.6,4.4c-3,2.2-7.2,3.6-12.8,4H0v25.7h128.3c13.9-1.3,24.3-5.8,31.2-13.4v13.4h25.8V76.3
		c21.3,11.5,59.6,18.1,114.9,19.8h27.4V70.4h-24.2c-32.9-0.7-59.8-3.5-80.6-8.4c-1.4-0.3-2.8-0.7-4.1-1h67.7
		C308.8,59,322.1,50.5,326.3,35.2 M320.1,8.8v14.3c-0.7,19.3-13.1,29.4-37.4,30.2h-99.3l1.1,1c18.7,15.3,62.1,23.2,130.4,23.9
		l5.1,0.1v1v9.3l-5.2-0.1c-70.8-0.6-116.6-9.3-137.2-26.2v26.2h-10.4V53.3h-7v2c0,0.7,0,1.4,0,2.2c0,3-0.3,6-1,9
		c-3.6,14.1-15.7,21.4-36.3,22.1H7.7V78.2h115.1c12.9-0.4,21.2-4.3,25-11.8c1.5-3.1,2.3-6.5,2.4-10v-3.1h-26.5V42.9H150V18.1H7.7
		V7.7h152.8v35.2h7V7.7h152.7L320.1,8.8 M309.8,21.9v-3.8H177.7v24.8h104.7C299.9,42.3,309,35.3,309.8,21.9 M301.1,25.7
		c-0.2,0.3-0.4,0.7-0.5,1c-3.3,5.5-9.3,8.4-18.2,8.5h-97v-9.5C185.3,25.7,301.1,25.7,301.1,25.7z"/>
	<path class="st1" d="M76,104.4h-2v14.3h1.5V107l4.4,11.8h1.4l4.3-11.8v11.8h1.6v-14.3h-2l-4.6,12.2L76,104.4 M66.9,104.2
		c-0.5-0.1-1-0.1-1.4-0.1c-0.9,0-1.9,0.2-2.8,0.6c-0.8,0.4-1.5,0.9-2,1.6c-0.6,0.7-1,1.5-1.3,2.4c-0.3,1-0.4,2-0.4,3
		s0.1,2.1,0.4,3.1c0.1,0.5,0.3,0.9,0.5,1.3s0.4,0.7,0.7,1c0.5,0.7,1.2,1.2,2,1.6c0.9,0.4,1.8,0.6,2.8,0.6c0.5,0,1,0,1.4-0.1
		s0.9-0.3,1.2-0.4c0.8-0.4,1.5-0.9,2.1-1.6c0.3-0.3,0.5-0.6,0.7-1s0.4-0.9,0.6-1.3c0.2-1,0.4-2,0.4-3.1l-0.1-1.6l-0.3-1.5
		c-0.3-0.9-0.7-1.7-1.2-2.3c-0.6-0.7-1.3-1.2-2.1-1.6C67.8,104.5,67.3,104.3,66.9,104.2 M65.5,105.4c1.3,0,2.6,0.6,3.4,1.7
		c0.5,0.6,0.8,1.2,1.1,1.9c0.2,0.8,0.4,1.7,0.4,2.6s-0.1,1.8-0.4,2.6c-0.2,0.7-0.6,1.4-1.1,2c-0.9,1-2.1,1.6-3.4,1.7
		c-0.7,0-1.3-0.1-1.9-0.4s-1.1-0.7-1.6-1.2c-0.5-0.6-0.8-1.2-1-1.9c-0.3-0.8-0.4-1.7-0.4-2.6s0.2-1.7,0.4-2.6c0.2-0.7,0.5-1.4,1-1.9
		c0.4-0.5,0.9-0.9,1.6-1.2C64.1,105.6,64.8,105.4,65.5,105.4 M125,106.3c-0.6-0.7-1.3-1.2-2.1-1.6c-0.4-0.2-0.8-0.4-1.2-0.4
		c-0.5-0.1-1-0.1-1.4-0.1c-0.9,0-1.9,0.2-2.8,0.6c-0.8,0.4-1.5,0.9-2,1.6c-0.6,0.7-1,1.5-1.2,2.3c-0.3,1-0.4,2-0.4,3
		s0.1,2.1,0.4,3.1c0.1,0.5,0.3,0.9,0.6,1.3c0.2,0.4,0.4,0.7,0.7,1c0.5,0.7,1.2,1.2,2,1.6c0.9,0.4,1.8,0.6,2.8,0.6c0.5,0,1,0,1.4-0.1
		s0.9-0.3,1.2-0.4c0.8-0.4,1.5-0.9,2.1-1.6c0.3-0.3,0.5-0.6,0.7-1s0.4-0.9,0.6-1.3c0.2-1,0.4-2,0.4-3.1l-0.1-1.6l-0.3-1.4
		C126,107.7,125.6,106.9,125,106.3 M120.2,105.5c1.3,0,2.6,0.6,3.4,1.7c0.5,0.6,0.8,1.2,1.1,1.9c0.2,0.8,0.4,1.7,0.4,2.6
		s-0.1,1.8-0.4,2.6c-0.2,0.7-0.6,1.4-1.1,1.9c-0.9,1-2.1,1.6-3.4,1.7c-0.7,0-1.4-0.1-2-0.4s-1.1-0.7-1.6-1.2c-0.5-0.6-0.8-1.2-1-1.9
		c-0.3-0.8-0.4-1.7-0.4-2.6s0.2-1.7,0.4-2.6c0.2-0.7,0.5-1.4,1-1.9c0.4-0.5,0.9-0.9,1.6-1.2C118.9,105.6,119.6,105.4,120.2,105.5
		 M107.1,104.5h-5.8v14.3h1.6v-6.2h4.3c0.7,0,1.5,0.2,2.1,0.7c0.2,0.2,0.3,0.5,0.4,0.8s0.1,0.5,0.2,0.8l0.1,3.1
		c0,0.3,0.1,0.6,0.2,0.8h1.7l-0.3-0.8c-0.1-0.3-0.1-0.6-0.1-0.9V115l-0.1-0.9c0-0.3-0.1-0.6-0.2-0.8c-0.1-0.3-0.3-0.5-0.6-0.7
		c-0.3-0.2-0.6-0.3-0.9-0.4c0.3-0.2,0.6-0.4,0.9-0.7c0.2-0.3,0.4-0.5,0.6-0.8s0.3-0.7,0.4-1s0.2-0.7,0.2-1.1c0-0.5-0.1-1-0.3-1.4
		c-0.2-0.5-0.5-0.9-0.8-1.3c-0.4-0.4-0.8-0.7-1.3-0.9C108.4,104.6,107.8,104.4,107.1,104.5 M102.9,105.9h4.3c0.4,0,0.7,0.1,1.1,0.2
		c0.3,0.1,0.6,0.3,0.9,0.6c0.3,0.2,0.5,0.5,0.6,0.8s0.2,0.7,0.2,1c0,0.4-0.1,0.8-0.2,1.1c-0.1,0.3-0.3,0.6-0.6,0.8
		c-0.3,0.3-0.6,0.5-0.9,0.6c-0.3,0.2-0.7,0.3-1.1,0.2h-4.3V105.9 M98.8,105.8v-1.4h-9.6v14.3h9.9v-1.4h-8.3V112h7.6v-1.4h-7.6v-4.8
		L98.8,105.8 M160,104.6c-0.8,0.4-1.5,0.9-2,1.6c-0.6,0.7-1,1.5-1.2,2.4c-0.3,1-0.4,2-0.4,3s0.1,2.1,0.4,3.1
		c0.1,0.5,0.3,0.9,0.6,1.3c0.2,0.4,0.4,0.7,0.7,1c0.5,0.7,1.2,1.2,2,1.6c0.9,0.4,1.8,0.6,2.8,0.6c0.5,0,1,0,1.4-0.1s0.9-0.3,1.2-0.4
		c0.8-0.4,1.5-0.9,2-1.6c0.3-0.3,0.5-0.6,0.7-1s0.4-0.9,0.6-1.3c0.2-1,0.4-2,0.4-3.1l-0.1-1.6l-0.2-1.5c-0.3-0.9-0.7-1.7-1.2-2.3
		c-0.5-0.7-1.2-1.2-2-1.6c-0.4-0.2-0.8-0.4-1.2-0.4c-0.5-0.1-1-0.1-1.4-0.1C161.9,104.1,161,104.3,160,104.6 M162.8,105.5
		c1.3,0,2.6,0.6,3.4,1.7c0.4,0.6,0.8,1.2,1,1.9c0.2,0.8,0.4,1.7,0.4,2.6s-0.1,1.8-0.4,2.6c-0.2,0.7-0.6,1.4-1,1.9
		c-0.9,1-2.1,1.6-3.4,1.7c-0.7,0-1.3-0.1-1.9-0.4c-0.6-0.3-1.1-0.7-1.6-1.2c-0.5-0.6-0.8-1.2-1-1.9c-0.3-0.8-0.4-1.7-0.4-2.6
		s0.2-1.7,0.4-2.6c0.2-0.7,0.5-1.4,1-1.9c0.4-0.5,0.9-0.9,1.6-1.2C161.5,105.6,162.2,105.4,162.8,105.5 M154.2,104.5h-1.5v10.7
		c0,0.4-0.1,0.9-0.2,1.2c-0.3,0.6-0.8,1-1.4,1.2l-0.8,0.1c-0.3,0-0.6,0-0.9-0.2c-0.3-0.1-0.6-0.2-0.8-0.4c-0.2-0.2-0.4-0.5-0.6-0.8
		c-0.1-0.4-0.2-0.8-0.2-1.2v-0.9h-1.6v1.1c0,0.6,0.1,1.1,0.4,1.7c0.2,0.4,0.5,0.8,0.9,1.2c0.4,0.3,0.8,0.6,1.2,0.7
		c0.5,0.2,1,0.3,1.4,0.2c0.5,0,1-0.1,1.5-0.2s0.9-0.4,1.2-0.7c0.4-0.4,0.7-0.8,0.9-1.3c0.2-0.6,0.3-1.3,0.3-1.9L154.2,104.5
		 M137.3,104.4h-1.5v14.3h1.5V104.4 M207.4,104.4h-1.6v6.2H198v-6.2h-1.5v14.3h1.6V112h7.8v6.8h1.6L207.4,104.4 M172.9,105.8h8v-1.4
		h-9.6v14.3h9.9v-1.4h-8.3V112h7.6v-1.4h-7.6L172.9,105.8 M183.3,104.4v1.4h4.8v12.9h1.5v-12.9h4.8v-1.4H183.3 M48,118.7v-6.1h4.3
		c0.7,0,1.5,0.2,2,0.7c0.2,0.2,0.3,0.5,0.5,0.8c0.1,0.3,0.1,0.5,0.2,0.8v3.1c0,0.3,0.1,0.6,0.2,0.8h1.7l-0.3-0.8
		c-0.1-0.3-0.1-0.6-0.1-0.9V115l-0.1-0.9c0-0.3-0.1-0.6-0.2-0.8c-0.1-0.3-0.3-0.5-0.5-0.7c-0.3-0.2-0.6-0.3-1-0.4
		c0.3-0.2,0.6-0.4,0.9-0.7c0.2-0.3,0.4-0.5,0.6-0.8c0.2-0.3,0.3-0.7,0.4-1c0.1-0.3,0.2-0.7,0.2-1.1c0-0.5-0.1-1-0.3-1.4
		c-0.2-0.5-0.5-0.9-0.8-1.3c-0.4-0.4-0.8-0.7-1.3-0.9c-0.6-0.2-1.2-0.4-1.8-0.3h-5.8V119L48,118.7 M48,111.3v-5.4h4.3
		c0.4,0,0.7,0.1,1.1,0.2c0.3,0.1,0.6,0.3,0.9,0.6c0.3,0.2,0.5,0.5,0.6,0.8s0.2,0.7,0.2,1c0,0.4-0.1,0.8-0.2,1.1
		c-0.1,0.3-0.3,0.6-0.6,0.8c-0.3,0.3-0.6,0.5-0.9,0.6c-0.3,0.2-0.7,0.3-1,0.2L48,111.3 M5.1,116.4c-0.1-0.4-0.2-0.8-0.2-1.2v-1H3.3
		v1.1c0,0.6,0.1,1.1,0.3,1.7c0.2,0.4,0.5,0.8,0.8,1.2c0.4,0.3,0.8,0.6,1.2,0.7c0.5,0.2,1,0.3,1.4,0.2c0.5,0,1-0.1,1.5-0.2
		s0.9-0.4,1.2-0.7c0.4-0.4,0.7-0.8,0.9-1.3c0.2-0.6,0.3-1.3,0.3-1.9v-10.5H9.6v10.8c0,0.4-0.1,0.9-0.2,1.2c-0.3,0.6-0.8,1-1.4,1.2
		l-0.7,0.1c-0.3,0-0.6,0-0.9-0.2c-0.3-0.1-0.6-0.2-0.8-0.4C5.4,117,5.2,116.7,5.1,116.4 M37.8,105.8v-1.4h-9.6v14.3h9.9v-1.4h-8.4
		V112h7.6v-1.4h-7.6v-4.8L37.8,105.8 M24.5,106.2c-0.6-0.7-1.3-1.2-2-1.6c-0.4-0.2-0.8-0.4-1.2-0.4c-0.5-0.1-1-0.1-1.5-0.1
		c-0.9,0-1.9,0.2-2.8,0.6c-0.8,0.4-1.5,0.9-2,1.6c-0.6,0.7-1,1.5-1.3,2.4c-0.3,1-0.4,2-0.4,3s0.1,2.1,0.4,3.1
		c0.1,0.5,0.3,0.9,0.5,1.3s0.4,0.7,0.7,1c0.5,0.7,1.2,1.2,2,1.6c0.9,0.4,1.8,0.6,2.8,0.6c0.5,0,1,0,1.5-0.1c0.4-0.1,0.8-0.2,1.2-0.4
		c0.8-0.4,1.5-0.9,2-1.6c0.3-0.3,0.5-0.6,0.7-1s0.4-0.9,0.5-1.3c0.2-1,0.4-2,0.4-3.1l-0.1-1.6l-0.3-1.5
		C25.4,107.7,25,106.9,24.5,106.2 M19.7,105.4c1.3,0,2.6,0.6,3.5,1.7c0.5,0.6,0.8,1.2,1,1.9c0.2,0.8,0.4,1.7,0.4,2.6
		s-0.1,1.8-0.4,2.6c-0.2,0.7-0.6,1.4-1,1.9c-0.9,1-2.1,1.6-3.5,1.7c-0.7,0-1.3-0.1-2-0.4c-0.6-0.3-1.1-0.7-1.5-1.2
		c-0.5-0.6-0.8-1.2-1-1.9c-0.3-0.8-0.4-1.7-0.4-2.6s0.2-1.7,0.4-2.6c0.2-0.7,0.5-1.4,1-1.9c0.4-0.5,0.9-0.9,1.5-1.2
		C18.4,105.6,19,105.4,19.7,105.4 M279.9,118.8h2v-2h-2V118.8 M243.2,104.2c-0.9,0-1.9,0.2-2.8,0.6c-0.8,0.4-1.5,0.9-2,1.6
		c-0.6,0.7-1,1.5-1.2,2.3c-0.3,1-0.4,2-0.4,3s0.1,2.1,0.4,3.1c0.1,0.5,0.3,0.9,0.6,1.3c0.2,0.4,0.4,0.7,0.7,1c0.5,0.7,1.2,1.2,2,1.6
		c0.9,0.4,1.8,0.6,2.8,0.6c0.5,0,1,0,1.4-0.1s0.8-0.2,1.2-0.4c0.8-0.4,1.5-0.9,2-1.6c0.3-0.3,0.5-0.6,0.7-1s0.4-0.9,0.6-1.3
		c0.2-1,0.4-2,0.4-3.1l-0.1-1.6l-0.3-1.4c-0.3-0.9-0.7-1.7-1.2-2.3c-0.5-0.7-1.2-1.2-2-1.6c-0.4-0.2-0.8-0.4-1.2-0.4
		C244.2,104.3,243.7,104.2,243.2,104.2 M243.2,105.5c0.7,0,1.3,0.2,1.9,0.4c0.6,0.3,1.1,0.7,1.6,1.2c0.4,0.6,0.8,1.2,1,1.9
		c0.2,0.8,0.4,1.7,0.4,2.6s-0.1,1.8-0.4,2.6c-0.2,0.7-0.6,1.4-1,1.9c-0.9,1-2.1,1.6-3.4,1.7c-0.7,0-1.4-0.1-2-0.4s-1.1-0.7-1.6-1.2
		c-0.5-0.6-0.8-1.2-1-1.9c-0.3-0.8-0.4-1.7-0.4-2.6s0.2-1.7,0.4-2.6c0.2-0.7,0.5-1.4,1-1.9c0.4-0.5,0.9-0.9,1.6-1.2
		C241.8,105.7,242.5,105.5,243.2,105.5 M219,106v-1.4h-9.6v14.3h9.9v-1.4h-8.4v-5.3h7.6v-1.4h-7.6V106L219,106 M223.4,104.5h-1.9
		v14.3h1.5V107l4.4,11.8h1.4l4.3-11.8v11.8h1.6v-14.3h-2l-4.6,12.2L223.4,104.5 M277.4,105.8v-1.4h-9.6v14.3h9.9v-1.4h-8.4V112h7.6
		v-1.4h-7.5v-4.8L277.4,105.8 M261.3,104.4h-1.7l-4.1,12.3l-4.1-12.3h-1.6l4.9,14.3h1.9L261.3,104.4 M264.9,104.4h-1.5v14.3h1.5
		V104.4 M294.6,108.5h1.6c-0.2-0.6-0.4-1.2-0.8-1.8c-0.3-0.5-0.7-1-1.2-1.4s-1.1-0.8-1.8-0.9c-0.7-0.2-1.5-0.4-2.3-0.3
		c-0.9,0-1.9,0.2-2.7,0.6c-0.8,0.4-1.4,1-2,1.7c-0.3,0.3-0.5,0.7-0.7,1.1l-0.5,1.2c-0.3,0.9-0.4,1.8-0.4,2.8c0,1.1,0.1,2.2,0.5,3.3
		c0.1,0.5,0.3,0.9,0.5,1.3s0.5,0.8,0.8,1.1c0.3,0.3,0.6,0.6,0.9,0.9s0.7,0.5,1.1,0.7s0.8,0.3,1.2,0.4c0.5,0.1,0.9,0.1,1.4,0.1
		c0.8,0,1.5-0.1,2.2-0.4s1.3-0.7,1.8-1.2s0.9-1,1.2-1.7c0.3-0.7,0.5-1.4,0.7-2.1h-1.6c-0.1,0.5-0.2,1-0.5,1.4
		c-0.4,1-1.2,1.8-2.2,2.2c-0.5,0.2-1.1,0.3-1.7,0.3s-1.2-0.1-1.8-0.3c-0.6-0.3-1.1-0.7-1.5-1.2c-0.5-0.6-0.9-1.3-1.1-2
		c-0.3-0.9-0.5-1.9-0.5-2.8c0-0.8,0.1-1.5,0.4-2.2c0.2-0.7,0.6-1.4,1-1.9c0.4-0.6,0.9-1,1.5-1.3c0.3-0.1,0.6-0.3,1-0.3
		c0.3-0.1,0.7-0.1,1-0.1c1,0,2,0.2,2.8,0.8c0.4,0.3,0.7,0.6,1,1C294.2,107.5,294.5,108,294.6,108.5 M326.5,104.4h-2l-4.6,12.2
		l-4.5-12.2h-2v14.3h1.5V107l4.4,11.8h1.4l4.2-11.8v11.8h1.5L326.5,104.4 M309.4,106.2c-0.5-0.7-1.2-1.2-2-1.6
		c-0.4-0.2-0.8-0.4-1.2-0.4c-0.5-0.1-1-0.1-1.5-0.1c-0.9,0-1.9,0.2-2.8,0.6c-0.8,0.4-1.5,0.9-2,1.6s-1,1.5-1.2,2.3
		c-0.3,1-0.4,2-0.4,3s0.1,2.1,0.4,3.1c0.1,0.5,0.3,0.9,0.5,1.3s0.4,0.7,0.7,1c0.5,0.7,1.2,1.2,2,1.6c0.9,0.4,1.8,0.6,2.8,0.6
		c0.5,0,1,0,1.5-0.1c0.4-0.1,0.9-0.3,1.2-0.4c0.8-0.4,1.5-0.9,2-1.6c0.3-0.3,0.5-0.6,0.7-1s0.4-0.9,0.5-1.3c0.2-1,0.4-2,0.4-3.1
		l-0.1-1.6l-0.2-1.5C310.4,107.7,310,106.9,309.4,106.2 M302.8,105.9c0.6-0.3,1.3-0.5,2-0.4c1.3,0,2.6,0.6,3.5,1.7
		c0.4,0.6,0.8,1.2,1,1.9c0.2,0.8,0.4,1.7,0.4,2.6s-0.1,1.8-0.4,2.6c-0.2,0.7-0.6,1.4-1,1.9c-0.9,1-2.1,1.6-3.5,1.7
		c-0.7,0-1.3-0.1-2-0.4c-0.6-0.3-1.1-0.7-1.5-1.2c-0.5-0.6-0.8-1.2-1-1.9c-0.3-0.8-0.4-1.7-0.4-2.6s0.2-1.7,0.4-2.6
		c0.2-0.7,0.5-1.4,1-1.9C301.7,106.6,302.3,106.2,302.8,105.9L302.8,105.9z"/>
</g>
</svg>
