
<svg xmlns="http://www.w3.org/2000/svg" version="1.1" xmlns:xlink="http://www.w3.org/1999/xlink" preserveAspectRatio="none" x="0px" y="0px" width="473px" height="313px" viewBox="0 0 473 313">
<defs>
<g id="car_front_0_Layer0_0_FILL">
<path fill="#000000" stroke="none" d="
M 125.1 30.25
L 125.1 22.3 112.8 22.3 112.8 27.5 111.45 28.85 101.45 0 23.65 0 13.65 28.85 12.3 27.5 12.3 22.3 0 22.3 0 30.25 9.95 30.25 10.65 30.95 5.3 30.95 5.3 75.35 8.55 75.35 8.55 93.95 23.95 93.95 23.75 75.35 101.35 75.35 101.15 93.95 116.55 93.95 116.55 75.35 119.8 75.35 119.8 30.95 114.45 30.95 115.15 30.25 125.1 30.25
M 100.65 49.1
Q 98.75 47.2 98.75 44.5 98.75 41.8 100.65 39.9 102.55 38 105.25 38 107.95 38 109.85 39.9 111.75 41.8 111.75 44.5 111.75 47.2 109.85 49.1 107.95 51 105.25 51 102.55 51 100.65 49.1
M 93.65 9.6
L 100.8 30.95 24.3 30.95 31.45 9.6 93.65 9.6
M 15.25 39.9
Q 17.15 38 19.85 38 22.55 38 24.45 39.9 26.35 41.8 26.35 44.5 26.35 47.2 24.45 49.1 22.55 51 19.85 51 17.15 51 15.25 49.1 13.35 47.2 13.35 44.5 13.35 41.8 15.25 39.9 Z"/>
</g>

<g id="gauge_0_Layer0_0_FILL">
<path fill="#000000" stroke="none" d="
M 79.9 81.95
Q 78.9 81 77.85 80.3
L 70.55 39.65 62.85 80.3
Q 61.75 81.05 60.8 82 56.8 86 56.8 91.6 56.8 97.05 60.55 100.9 60.65 101.05 60.8 101.15 60.85 101.2 60.9 101.25 64.8 105.1 70.35 105.1 75.9 105.1 79.9 101.25
L 79.95 101.2 79.95 101.15
Q 80.05 101.05 80.2 100.9 83.9 97.05 83.9 91.6 83.9 86.05 80.05 82.1
L 79.9 81.95
M 20.75 56.85
L 37.8 62.25 40.5 53.8 23.45 48.4 20.75 56.85
M 36.5 74.5
L 19.5 80.05 22.25 88.45 39.25 82.9 36.5 74.5
M 75.1 36.2
L 74.75 18.35 65.9 18.5 66.25 36.35 75.1 36.2
M 54.75 39.8
L 44.05 25.5 36.95 30.8 47.65 45.1 54.75 39.8
M 140.8 70.4
Q 140.8 41.25 120.2 20.65 99.55 0 70.4 0 41.25 0 20.6 20.65 0 41.25 0 70.4 0.05 90.7 10 106.9
L 21.9 99.55
Q 13.95 86.6 14 70.4 14 47.05 30.5 30.55 47.05 14 70.4 14 93.75 14 110.3 30.55 126.8 47.05 126.8 70.4 126.85 86.6 118.95 99.55
L 130.9 106.85
Q 140.75 90.7 140.8 70.4
M 102.8 61.85
L 119.85 56.45 117.2 48 100.15 53.4 102.8 61.85
M 101.4 82.5
L 118.4 88.05 121.15 79.65 104.15 74.1 101.4 82.5
M 96.55 25.1
L 85.85 39.4 92.95 44.7 103.65 30.4 96.55 25.1 Z"/>
</g>

<g id="gears_0_Layer0_0_FILL">
<path fill="#000000" stroke="none" d="
M 102.8 38
L 95.6 39
Q 92.6 29 85.3 21.45
L 89.75 15.7 77.85 6.55 73.4 12.35
Q 68.3 9.6 62.75 8.3 58.4 7.35 53.8 7.25
L 52.8 0 37.9 2 38.9 9.25
Q 28.9 12.25 21.5 19.4
L 15.65 14.95 6.55 26.9 12.4 31.35
Q 7.85 39.7 7.25 49.05
L 7.25 49.1
Q 7.15 50.05 7.2 51
L 0 52 2 66.85 9.2 65.85
Q 9.45 66.8 9.75 67.65
L 9.85 67.9
Q 10.1 68.55 10.4 69.2 13.45 77.15 19.45 83.35
L 15.1 89.15 26.95 98.25 31.35 92.45
Q 40.5 97.4 50.9 97.65
L 51.9 104.8 66.8 102.8 65.8 95.65
Q 75.85 92.6 83.35 85.35
L 89.1 89.7 98.15 77.8 92.45 73.45
Q 96.55 65.8 97.4 57.4 97.55 55.65 97.6 53.85
L 104.8 52.85 102.8 38
M 57.25 31.75
L 57.3 31.75
Q 61.45 32.75 65.15 35.55 72.1 40.85 73.3 49.55 73.65 52.25 73.4 54.85
L 73.45 54.85
Q 72.85 60.35 69.15 65.15 63.85 72.1 55.2 73.3 46.55 74.5 39.55 69.15 34.85 65.6 32.75 60.35
L 32.6 60.05 32.6 60
Q 32.55 59.85 32.45 59.7
L 32.45 59.65
Q 31.7 57.5 31.4 55.25 31.1 52.9 31.25 50.8
L 31.25 50.7
Q 31.65 44.75 35.6 39.6
L 35.65 39.55
Q 40.1 33.55 47.15 31.9
L 47.15 31.95
Q 48.25 31.6 49.5 31.45 53.5 30.9 57.25 31.75
M 136.3 46.15
L 137.15 42 128.6 40.3 127.75 44.5
Q 124.5 44.3 121.35 45.05 118.8 45.65 116.35 46.8
L 114.05 43.35 106.8 48.15 109.25 51.6
Q 104.9 55.75 102.8 61.4
L 98.7 60.45 97 68.95 101.25 69.8
Q 101.05 75.2 103.05 80.25
L 103.05 80.3
Q 103.2 80.8 103.5 81.2
L 100 83.55 104.8 90.7 108.3 88.35
Q 108.75 88.85 109.1 89.2
L 109.2 89.25
Q 109.45 89.6 109.8 89.8 113.4 93.2 118.05 94.8
L 117.3 98.95 125.75 100.6 126.55 96.45
Q 132.5 96.75 137.9 94.15
L 140.25 97.6 147.45 92.8 145.1 89.35
Q 149.5 85.25 151.55 79.5
L 155.6 80.4 157.25 71.95 153.2 71.15
Q 153.3 66.2 151.6 61.55 151.25 60.65 150.85 59.65
L 154.3 57.35 149.45 50.25 146.05 52.55
Q 142 48.15 136.3 46.15
M 119.25 61.2
Q 119.75 60.8 120.35 60.4 122.3 59.1 124.4 58.55
L 124.4 58.6
Q 126.85 57.95 129.45 58.5 134.4 59.5 137.3 63.65 138.15 65 138.7 66.4 139.75 69.35 139.1 72.8 138.1 77.7 133.9 80.5 129.8 83.35 124.8 82.4 121.45 81.7 119.15 79.6
L 118.95 79.45
Q 118.85 79.35 118.8 79.35
L 118.8 79.3
Q 117.8 78.4 117.1 77.3 116.3 76.2 115.85 75
L 115.8 74.95
Q 114.5 71.8 115.25 68.15
L 115.3 68.1
Q 116.05 63.85 119.25 61.2 Z"/>
</g>

<g id="carSide_0_Layer0_0_FILL">
<path fill="#000000" stroke="none" d="
M 25.45 77.6
Q 25.45 84.15 30.05 88.75 34.7 93.4 41.25 93.4 47.8 93.4 52.4 88.75 57 84.15 57 77.6 57 76.15 56.75 74.85 56 70.05 52.4 66.45 47.8 61.85 41.25 61.85 34.7 61.85 30.05 66.45 26.5 70.05 25.7 74.85 25.45 76.15 25.45 77.6
M 106.5 77.6
Q 106.5 84.15 111.1 88.75 115.75 93.4 122.25 93.4 128.8 93.4 133.4 88.75 138 84.15 138 77.6 138 76.15 137.8 74.85 137 70.05 133.4 66.45 128.8 61.85 122.25 61.85 115.75 61.85 111.1 66.45 107.5 70.05 106.7 74.85 106.5 76.15 106.5 77.6
M 158.1 35.1
L 126.1 30.45 107.3 7.95
Q 101.05 0.25 96.5 0
L 50.65 0
Q 45.05 -0.1 40.4 5.1
L 20.5 30.45 12.85 30.45
Q 0.1 29.55 0 35.55
L 0 65.15
Q 0.35 74.65 7.1 74.85
L 18.75 74.85
Q 19.6 67.2 25.2 61.55 31.85 54.95 41.3 54.95 50.7 54.95 57.3 61.55 62.95 67.2 63.8 74.85
L 99.75 74.85
Q 100.6 67.2 106.2 61.55 112.85 54.95 122.3 54.95 131.75 54.95 138.35 61.55 144 67.2 144.85 74.85
L 158.55 74.85
Q 161.3 74.45 161.6 71.55
L 161.6 39.65
Q 161.85 36 158.1 35.1
M 89.1 12.5
Q 95.7 12.05 99.05 16.5
L 110.15 30.45 81.4 30.45 81.4 12.5 89.1 12.5
M 46.4 19.05
Q 50.9 13.2 54.05 12.5
L 68.85 12.5 68.85 30.45 37.55 30.45 46.4 19.05 Z"/>
</g>

<g id="engine_0_Layer0_0_FILL">
<path fill="#000000" stroke="none" d="
M 131.3 23
L 130.75 20.1 117 20.1 110.1 38.5 106.55 38.5 99.6 20.1 90.85 20.1 90.85 12.25 71.6 12.25 71.6 7.1 87.3 7.1 87.3 0 29.85 0 29.85 7.1 48 7.1 48 12.25 26.3 12.25 26.3 20.1 11.55 20.1 11.55 45.2 7.1 45.2 7.1 25.05 0 25.05 0 73.3 7.1 73.3 7.1 52.3 11.55 52.3 11.55 77.45 28.25 77.45 41.7 93.2 99.6 93.2 106.55 74.8 110.1 74.8 117 93.2 130.75 93.2 131.3 90.4
Q 138.1 57.65 131.3 23 Z"/>
</g>
</defs>

<g transform="matrix( 2.9294586181640625, 0, 0, 2.9294586181640625, 53.45,15.95) ">
<g transform="matrix( 1, 0, 0, 1, 0,0) ">
<use xlink:href="#car_front_0_Layer0_0_FILL"/>
</g>
</g>

<g transform="matrix( 2.9294586181640625, 0, 0, 2.9294586181640625, 39.4,0) ">
<g transform="matrix( 1, 0, 0, 1, 0,0) ">
<use xlink:href="#gauge_0_Layer0_0_FILL"/>
</g>
</g>

<g transform="matrix( 2.9294586181640625, 0, 0, 2.9294586181640625, 6.45,0) ">
<g transform="matrix( 1, 0, 0, 1, 0,0) ">
<use xlink:href="#gears_0_Layer0_0_FILL"/>
</g>
</g>

<g transform="matrix( 2.9294586181640625, 0, 0, 2.9294586181640625, 0,16.7) ">
<g transform="matrix( 1, 0, 0, 1, 0,0) ">
<use xlink:href="#carSide_0_Layer0_0_FILL"/>
</g>
</g>

<g transform="matrix( 2.9294586181640625, 0, 0, 2.9294586181640625, 39.4,16.95) ">
<g transform="matrix( 1, 0, 0, 1, 0,0) ">
<use xlink:href="#engine_0_Layer0_0_FILL"/>
</g>
</g>
</svg>
